{
	"asset":{
		"generator":"Khronos glTF Blender I/O v3.6.27",
		"version":"2.0"
	},
	"scene":0,
	"scenes":[
		{
			"name":"Scene",
			"nodes":[
				0
			]
		}
	],
	"nodes":[
		{
			"mesh":0,
			"name":"Circle"
		}
	],
	"meshes":[
		{
			"name":"Circle",
			"primitives":[
				{
					"attributes":{
						"POSITION":0,
						"NORMAL":1,
						"TEXCOORD_0":2
					},
					"indices":3
				}
			]
		}
	],
	"accessors":[
		{
			"bufferView":0,
			"componentType":5126,
			"count":3104,
			"max":[
				2.567854404449463,
				2.567854404449463,
				1
			],
			"min":[
				-2.567854404449463,
				-2.567854404449463,
				-41.199974060058594
			],
			"type":"VEC3"
		},
		{
			"bufferView":1,
			"componentType":5126,
			"count":3104,
			"type":"VEC3"
		},
		{
			"bufferView":2,
			"componentType":5126,
			"count":3104,
			"type":"VEC2"
		},
		{
			"bufferView":3,
			"componentType":5123,
			"count":18432,
			"type":"SCALAR"
		}
	],
	"bufferViews":[
		{
			"buffer":0,
			"byteLength":37248,
			"byteOffset":0,
			"target":34962
		},
		{
			"buffer":0,
			"byteLength":37248,
			"byteOffset":37248,
			"target":34962
		},
		{
			"buffer":0,
			"byteLength":24832,
			"byteOffset":74496,
			"target":34962
		},
		{
			"buffer":0,
			"byteLength":36864,
			"byteOffset":99328,
			"target":34963
		}
	],
	"buffers":[
		{
			"byteLength":136192,
			"uri":"data:application/octet-stream;base64,"
		}
	]
}
