{
	"asset":{
		"generator":"Khronos glTF Blender I/O v3.6.27",
		"version":"2.0"
	},
	"scene":0,
	"scenes":[
		{
			"name":"Scene",
			"nodes":[
				0
			]
		}
	],
	"nodes":[
		{
			"mesh":0,
			"name":"Circle"
		}
	],
	"meshes":[
		{
			"name":"Circle",
			"primitives":[
				{
					"attributes":{
						"POSITION":0,
						"NORMAL":1,
						"TEXCOORD_0":2
					},
					"indices":3
				}
			]
		}
	],
	"accessors":[
		{
			"bufferView":0,
			"componentType":5126,
			"count":3616,
			"max":[
				2.567854404449463,
				2.567854404449463,
				1
			],
			"min":[
				-2.567854404449463,
				-2.567854404449463,
				-47.89997100830078
			],
			"type":"VEC3"
		},
		{
			"bufferView":1,
			"componentType":5126,
			"count":3616,
			"type":"VEC3"
		},
		{
			"bufferView":2,
			"componentType":5126,
			"count":3616,
			"type":"VEC2"
		},
		{
			"bufferView":3,
			"componentType":5123,
			"count":21504,
			"type":"SCALAR"
		}
	],
	"bufferViews":[
		{
			"buffer":0,
			"byteLength":43392,
			"byteOffset":0,
			"target":34962
		},
		{
			"buffer":0,
			"byteLength":43392,
			"byteOffset":43392,
			"target":34962
		},
		{
			"buffer":0,
			"byteLength":28928,
			"byteOffset":86784,
			"target":34962
		},
		{
			"buffer":0,
			"byteLength":43008,
			"byteOffset":115712,
			"target":34963
		}
	],
	"buffers":[
		{
			"byteLength":158720,
			"uri":"data:application/octet-stream;base64,"
		}
	]
}
